<svg data-name="Capa 1" id="Capa_1" viewBox="0 0 380 250" xmlns="http://www.w3.org/2000/svg"><g class="animate-up"><defs><clipPath id="clip-path"><path class="cls-1" d="m158 46.88 3.63-1.13 2.5.5.75 3 .62 5 1 30.25-1 5.5-8 1.75-6.87.13-3-2.75-3.38-7-4.12-4.5L135.5 73l-1.62-5.5.87-8.75 3.63-5.12 4.62-3.38 5.38-2.25z"/></clipPath><clipPath id="clip-path-2"><path class="cls-1" d="m135.5 75.83 4.63 1.8 4.54 8.37 3.33 8.5 1.17 6-2.84 5.33-4.83 2.84-13.5 6-13 4.5-7.67 5.66-3.5 2.67-4.16-12L101 107l3.5-7 8.83-6 8.17-2.5 7-3.67 2.67-3.66s1.16-2 1.5-2.5a9 9 0 0 0 .66-2V78Z"/></clipPath><style>.cls-1{fill:none}.cls-2{fill:#ffde00}.cls-3{fill:#fff}</style></defs><g class="animate-scaling-animation" id="starts"><path class="cls-2" d="m47.39 85.22-1.01-1.34.54-1.6-1.59.54-1.35-1L44 83.5l-1.37.97 1.6.5.5 1.61.97-1.38zM29.73 226.67l-1.85-2.48.99-2.93-2.93.99-2.48-1.85.04 3.1-2.53 1.79 2.96.92.92 2.95 1.79-2.53zm57.5-48.5-1.85-2.48.99-2.93-2.93.99-2.48-1.85.04 3.1-2.53 1.79 2.96.92.92 2.95 1.79-2.53zm47.07-153.6-1.38-1.85.74-2.19-2.19.75-1.85-1.38.03 2.31-1.88 1.33 2.2.69.69 2.2 1.33-1.89z"/><path class="cls-3" d="M140.43 181.65a2.2 2.2 0 0 1-.19 2.74c-.57.58-2.91 3.34-2.91 3.34s3-2 3.71-2.43a2.17 2.17 0 0 1 2.74.19l3.34 2.91-2.42-3.71a2.08 2.08 0 0 1 .19-2.74l2.91-3.34s-3.05 1.95-3.71 2.42a2.13 2.13 0 0 1-2.74-.18c-.6-.56-3.35-2.91-3.34-2.92s1.99 3.07 2.42 3.72M20.18 19.34a2.15 2.15 0 0 1-1.29 2.38c-.75.29-4 1.81-4 1.81s3.52-.57 4.32-.66a2.13 2.13 0 0 1 2.37 1.29l1.81 4-.65-4.32a2 2 0 0 1 1.29-2.37l4-1.81s-3.53.5-4.32.65A2.1 2.1 0 0 1 21.33 19c-.31-.74-1.81-4-1.81-4s.48 3.55.66 4.34m63.06 35.28a3 3 0 0 1-1.76 3.27c-1 .39-5.47 2.48-5.47 2.48s4.84-.78 5.94-.9a2.9 2.9 0 0 1 3.26 1.76l2.49 5.46s-.73-4.84-.9-5.93a2.81 2.81 0 0 1 1.76-3.26L94 55s-4.85.7-5.94.9a2.86 2.86 0 0 1-3.26-1.76c-.43-1-2.49-5.46-2.49-5.46s.74 4.85.93 5.94M39.5 136a1.93 1.93 0 0 1-1.15 2.12c-.66.26-3.54 1.61-3.54 1.61s3.14-.51 3.85-.59a1.91 1.91 0 0 1 2.12 1.15c.29.65 1.61 3.54 1.61 3.54s-.47-3.14-.59-3.85a1.83 1.83 0 0 1 1.2-2.11l3.54-1.62s-3.14.45-3.84.59a1.86 1.86 0 0 1-2.12-1.15c-.28-.65-1.62-3.54-1.62-3.54s.42 3.15.54 3.85m43.15 78.88A1.92 1.92 0 0 1 81.5 217c-.67.26-3.54 1.61-3.54 1.61s3.13-.51 3.84-.59a1.9 1.9 0 0 1 2.12 1.15l1.62 3.54-.54-3.85a1.82 1.82 0 0 1 1.15-2.11l3.54-1.62s-3.14.46-3.85.59a1.88 1.88 0 0 1-2.12-1.14c-.27-.66-1.61-3.55-1.61-3.55s.41 3.15.54 3.85"/><path class="cls-2" d="m366.06 151.9-1.01-1.35.54-1.59-1.59.54-1.35-1 .02 1.68-1.37.97 1.61.5.5 1.6.97-1.37zm-53.11-50.58-1.85-2.48.99-2.94-2.93 1-2.48-1.85.04 3.1-2.53 1.79 2.96.91.92 2.96 1.78-2.53zm-17.66 115.6-1.85-2.48.99-2.94-2.93 1-2.48-1.85.04 3.1-2.53 1.79 2.96.91.92 2.96 1.79-2.53zm64.02-188.39-1.38-1.85.74-2.19-2.19.74-1.85-1.38.03 2.31-1.89 1.34 2.21.68.69 2.21L357 28.5z"/><path class="cls-3" d="M324 162a2.36 2.36 0 0 1-.21 3c-.61.63-3.14 3.61-3.14 3.61s3.25-2.17 4-2.62a2.33 2.33 0 0 1 2.95.2l3.62 3.15s-2.14-3.28-2.62-4a2.25 2.25 0 0 1 .2-3l3.15-3.61s-3.3 2.11-4 2.62a2.3 2.3 0 0 1-3-.2c-.65-.6-3.61-3.14-3.61-3.15s2.18 3.28 2.66 4m29.62-78.74a1.64 1.64 0 0 1-1 1.82c-.57.22-3 1.39-3 1.39s2.69-.44 3.3-.51a1.62 1.62 0 0 1 1.82 1l1.39 3s-.4-2.7-.5-3.3a1.56 1.56 0 0 1 1-1.82l3.05-1.39s-2.7.39-3.31.5a1.6 1.6 0 0 1-1.82-1c-.24-.57-1.39-3-1.39-3s.35 2.71.46 3.31m-7.5 143a1.64 1.64 0 0 1-1 1.82c-.57.22-3 1.39-3 1.39s2.69-.44 3.3-.51a1.62 1.62 0 0 1 1.82 1l1.39 3s-.4-2.7-.5-3.3a1.56 1.56 0 0 1 1-1.82l3.05-1.39s-2.7.39-3.31.5a1.6 1.6 0 0 1-1.82-1c-.24-.57-1.39-3-1.39-3.05s.34 2.76.46 3.36M307.67 27.37a1.88 1.88 0 0 1-1.11 2.06c-.65.25-3.44 1.56-3.44 1.56s3-.49 3.73-.57a1.85 1.85 0 0 1 2.06 1.11l1.57 3.47s-.46-3-.57-3.73a1.77 1.77 0 0 1 1.09-2.09l3.44-1.56s-3 .44-3.74.56a1.79 1.79 0 0 1-2.05-1.1c-.27-.64-1.57-3.44-1.57-3.44s.47 3.05.59 3.73"/><path d="m174.23 65.34.37.17Zm.77.36.37.18Zm-1.52-.7.34.15Zm-.7-.31.28.12Zm15.95 9.48.13.1Zm-14.13-8.66.42.19Zm-.78-.36.41.19Zm-1.51-.66.47.2Zm.75.32.42.19ZM187.24 73l.43.32Zm-1.14-.8c.38.27.76.53 1.14.81-.38-.28-.76-.54-1.14-.81m1.69 1.22.37.3Zm1.6 1.3.52.44Zm-.53-.45.39.33ZM186 72.09l-1.13-.77Zm2.26 1.7.47.38Zm1.65 1.37h.07Zm-1.75-1.44.1.07Zm1.09.88.14.12Zm-1.58-1.27.12.09ZM186 72.09l.15.11Z" style="fill:#413a3e"/></g><g id="rock"><path class="cls-3" d="M251.59 239.49c-.76 1.27-1.2 1.61-3 2.46-2.75 1.27-7.3 2-13.86 2.21l-7.76.26c-3 .11-4.05 0-12.65-.93-9.54-1.06-20.94-1.19-35.73-.39-4.13.22-39.71.16-40.75-.07-1.7-.39-1.76-.82-.56-4 4.2-11.17 15.74-22 27.54-25.84 5.12-1.67 6.68-1.8 16.42-1.38a31 31 0 0 0 8.25-.35c1.91-.31 6.51-1 10.23-1.5 11.83-1.65 19.69-1.24 28.46 1.47a72 72 0 0 1 6.86 2.48 35.4 35.4 0 0 1 10.57 8.25c3.57 4.39 7 11.49 6.93 14.48a5.6 5.6 0 0 1-.95 2.85m-17.72-31.6c1.18-.54 3.33-.32 5.54.56a15.5 15.5 0 0 1 5 3.36c2 1.78 2.84 2.7 2.84 3.19s-.11.73-.25.8a10.6 10.6 0 0 1-2.59-1.68 34.7 34.7 0 0 0-8.69-5c-2.17-.82-2.4-.99-1.85-1.23M172 203.77c-.23 1.16-.22 1.15-4.32.69-6.46-.73-6.06 4.16-13.4 8.35-4.55 2.6-11.44 8.29-14.32 11.84a51 51 0 0 0-7.65 12.9c-1.76 4.25-2.13 6.63-1.14 7.29a19.9 19.9 0 0 0 7.42 2.65c3.39.45 34.41.36 46.14-.13a200.5 200.5 0 0 1 31 .8l7.43.78a30 30 0 0 0 3.3 0c1.18 0 4.67-.17 7.76-.26 9.43-.28 14.64-1.37 19.62-4.1a6.72 6.72 0 0 0 3.82-4.89c.9-3.08.46-5.83-1.7-10.7a59 59 0 0 0-5.13-8.54c-.64-.73-.64-.74.17-1.61 2.09-2.26 2.49-4.33 1.22-6.35-1.07-1.68-6.44-6-8.92-7.2a14.8 14.8 0 0 0-7.89-1.82 11.8 11.8 0 0 0-3.3.62 10 10 0 0 0-2.85 1.5l-1.18.83-2.87-.56c-9.45-1.87-16.47-1.86-29.29 0-4.54.68-17.76-1.43-18-1.42s-.4-.27-.25-1.13"/><path class="cls-3" d="M184.2 234.66c-1.54-1.14-6.6-.83-8.14.49a4 4 0 0 0-.28.29 2.5 2.5 0 0 0-.22.34 2.5 2.5 0 0 0-.15.38 2.6 2.6 0 0 0-.07.4 1.8 1.8 0 0 0 0 .4 2.6 2.6 0 0 0 .09.4 1.7 1.7 0 0 0 .16.37 2 2 0 0 0 .23.33c.46.5.75.54 3.57.4 4-.19 4.7-.3 5.26-.92a2.05 2.05 0 0 0-.45-2.88m17.45-16.48c-3.6-2.17-5.25-2.61-9.65-2.61-3.34 0-3.9.08-5.38.69-2 .82-2.61 1.75-2.07 3 .46 1.11 1.58 1.45 3.24 1a14.34 14.34 0 0 1 13.35 3c.78.64 1.75 1.38 2.15 1.65a1.91 1.91 0 0 0 2.68-.2c1.71-1.71.41-3.71-4.32-6.53m-6.41 8.5c-.88-.46-1.16-.49-1.84-.21a2.32 2.32 0 0 0-1.12 1.11c-.41 1-.07 1.72 1.34 3s2.52 1.21 3.34.17a2.7 2.7 0 0 0 .57-1.2c0-.83-1.19-2.31-2.29-2.87m18.05 4.54a1.4 1.4 0 0 0-.35 0 1.4 1.4 0 0 0-.35 0l-.33.12a1.5 1.5 0 0 0-.3.18 1.2 1.2 0 0 0-.27.23 1.5 1.5 0 0 0-.21.28 1.3 1.3 0 0 0-.16.31 1.3 1.3 0 0 0-.1.34 5.5 5.5 0 0 0 .88 3.49 2.23 2.23 0 0 0 2.87-.1c.48-.48.56-.82.45-2-.17-1.67-.94-2.73-2.13-2.85M153 233.93a6.3 6.3 0 0 0-2.05.35 6.4 6.4 0 0 0-1.81 1 2.46 2.46 0 0 0-.23 3.63 1.9 1.9 0 0 0 2.58 0 8.6 8.6 0 0 1 1.84-1c1.76-.71 2.18-1.92 1.12-3.26a1.6 1.6 0 0 0-.63-.55 1.7 1.7 0 0 0-.82-.17"/><path class="cls-3" d="M157.49 225.51a11.8 11.8 0 0 0-3.18-.41c-5.95 0-10 3.09-12.72 9.67-1.3 3.17-1.24 4.65.22 5.23s2.26-.17 3.49-3.16c1.93-4.71 4.18-6.79 7.83-7.22a5.48 5.48 0 0 1 4.64 1.43c2 1.64 3.53 1.62 4.33-.05.44-.93.44-1-.08-2a10 10 0 0 0-4.53-3.49"/></g><g class="animate-upDownLinear-animation" id="astronauta"><g class="animate-pulse"><g style="clip-path:url(#clip-path)"><path class="cls-3" d="M152.33 71.54a38 38 0 0 1 .13-3.86 44 44 0 0 0-.06-5.58c3.44.56 6.77 1.1 9.1 1.46.07 1.36.15 2.6.23 3.66s.14 3.26.19 5.62a73 73 0 0 1-7.63-.93Z"/><path class="cls-3" d="M164.05 55c4.92-4.37 9.32 1.53 9.32 1.53l.11 10.15c-2.39-4-8.86-2.59-8.86-2.59-.32 0-1.47-.22-3.12-.49-.16-2.88-.3-6.25-.41-9.36Zm-21.5 5.47c-.19-3.84-.41-7.51-.62-10.67 2.78.49 6.35 1.28 9.82 2.1.26 3.45.51 7.18.65 10.2Zm22.76 12.47c3.85-2.2 8.39 2.69 8.39 2.69l.28 9.3a7.9 7.9 0 0 0-8.46-2.18c-.69 0-1.94 0-3.5-.07 0-2.77-.05-6.58-.1-9.84 2.17.16 3.39.1 3.39.1m-12.98-1.4c0 2.81 0 6.57.14 10.15-1.58-.25-3.12-.55-4.49-.9a28.4 28.4 0 0 0-5-.69c0-3.16 0-6.67-.09-10.26 3.33.49 6.73 1.16 9.44 1.7m-1.43-30.02s8.91 1.87 9.89 2.81c0 0 .11 4.55.3 9.87-2.33-.6-5.78-1.46-9.34-2.3-.42-5.55-.85-10.38-.85-10.38m11.18 44.67c.1 2.23 1 7.71 1 7.71s-6.27-1.56-10.25-1.29c0 0-.19-5.21-.34-10.92 3.35.53 6.91.85 9.55 1-.04 1.64.02 2.92.04 3.5"/><path class="cls-3" d="M131.22 82.78a23 23 0 0 1 .33-2.52A89 89 0 0 1 143 80.1c-.09 6.26-.55 11.14-1.65 12.58-.27 0-2 .12-3.93.29-3.28.26-5.43.51-5.43.51a68 68 0 0 1-.77-10.7m6.97-23.1c.79.17 2.37.44 4.36.79.16 3.07.29 6.25.38 9.37-4.11-.61-8.05-.89-10.28-.1-.06-1.9-.21-3.62-.37-4.94.08-.62.16-1.26.24-1.9q.06-.43.09-.9c1.39-1.33 3.47-2.75 5.58-2.32"/></g><g style="clip-path:url(#clip-path-2)"><path class="cls-3" d="M116.42 113.15c0-1.45 0-2.59.11-3.17a38 38 0 0 0 0-4.59l7.47 1.2c.06 1.11.12 2.14.19 3s.12 2.67.16 4.61a59 59 0 0 1-6.27-.76Z"/><path class="cls-3" d="M126.06 99.52c4-3.59 7.65 1.26 7.65 1.26l.1 8.34c-2-3.27-7.28-2.13-7.28-2.13l-2.57-.4c-.13-2.37-.24-5.14-.33-7.69Zm-17.67 4.53a489 489 0 0 0-.51-8.77c2.29.41 5.22 1.06 8.07 1.73.21 2.84.42 5.9.54 8.38-2.86-.47-5.82-.95-8.1-1.34m8.03 9.1c0 2.3 0 5.4.13 8.34-1.3-.21-2.57-.46-3.69-.74a23 23 0 0 0-4.08-.57c0-2.6 0-5.48-.08-8.43 2.71.4 5.5.97 7.72 1.4m-1.16-24.67s7.31 1.53 8.12 2.31c0 0 .09 3.74.25 8.11-1.92-.49-4.75-1.2-7.68-1.89-.34-4.56-.69-8.53-.69-8.53"/><path class="cls-3" d="M99.09 122.38a18 18 0 0 1 .26-2.07 75 75 0 0 1 9.43-.13c-.08 5.14-.45 9.15-1.36 10.34-.22 0-1.66.1-3.23.24-2.69.21-4.46.41-4.46.41a56 56 0 0 1-.64-8.79m5.72-18.98c.65.14 1.94.37 3.58.65.13 2.52.24 5.14.31 7.7-3.38-.5-6.61-.74-8.44-.08-.05-1.56-.18-3-.31-4.06.07-.51.13-1 .2-1.57 0-.23 0-.48.07-.73 1.16-1.09 2.86-2.26 4.59-1.91m27.7-2.54c0-1.45 0-2.59.11-3.18a38 38 0 0 0-.05-4.58l7.43 1.2c.06 1.11.13 2.14.19 3s.12 2.67.16 4.61a59 59 0 0 1-6.27-.76Z"/><path class="cls-3" d="M142.14 87.23c4-3.59 7.66 1.25 7.66 1.25l.09 8.35c-2-3.27-7.28-2.13-7.28-2.13l-2.61-.4a519 519 0 0 1-.33-7.7Zm-17.66 4.52c-.16-3.15-.34-6.16-.52-8.76 2.29.41 5.23 1.06 8.07 1.73.22 2.83.43 5.9.54 8.38Zm18.7 10.25c3.16-1.81 6.89 2.2 6.89 2.2l.23 7.65a6.48 6.48 0 0 0-7-1.79c-.57 0-1.59 0-2.87-.06 0-2.27 0-5.41-.09-8.09 1.83.09 2.84.09 2.84.09m-10.67-1.14c0 2.3.05 5.4.12 8.33-1.3-.2-2.56-.45-3.69-.73a22 22 0 0 0-4.07-.57c0-2.6 0-5.48-.09-8.43 2.71.4 5.5.97 7.73 1.4"/><path class="cls-3" d="M131.34 76.19s7.31 1.53 8.12 2.31c0 0 .1 3.74.25 8.1-1.92-.49-4.75-1.2-7.68-1.88-.34-4.56-.69-8.53-.69-8.53m9.19 36.7c.08 1.84.8 6.34.8 6.34a35.4 35.4 0 0 0-8.42-1.06s-.16-4.28-.28-9a77 77 0 0 0 7.85.82c.01 1.38.02 2.43.05 2.9m-25.36-2.8a18 18 0 0 1 .26-2.07 74 74 0 0 1 9.44-.13c-.08 5.14-.46 9.15-1.36 10.33-.23 0-1.67.11-3.23.25-2.7.21-4.47.41-4.47.41a56 56 0 0 1-.64-8.79m5.72-18.98c.65.13 2 .36 3.59.64.12 2.53.23 5.15.3 7.71-3.37-.5-6.61-.74-8.44-.08 0-1.57-.18-3-.3-4.06.06-.52.12-1 .2-1.57 0-.23.05-.48.07-.73 1.15-1.09 2.85-2.26 4.58-1.91"/></g></g><path class="cls-3" d="M283.81 68.93c-.29-2.13.47-4.51-1.41-6.15-1.08-.93-3.21 2-3.94 5.53a20.1 20.1 0 0 0 .41 9.87c.2.66.54 1 1.23.83a2.9 2.9 0 0 0 1.39-.63c2.3-2.77 2.2-6.15 2.35-9.45Zm-14.25 6.9a30 30 0 0 0 .66 4.41 4 4 0 0 0 3.52 3c1.42.22 3-1.2 2.35-2.35-3.87-7-2-13.27 2.15-19.32.32-.46.54-.95.88-1.39.66-.86.27-1.55-.32-2.16a2 2 0 0 0-2.91-.07 9 9 0 0 0-1.61 1.86 29 29 0 0 0-4.72 16.06Zm-69.39 123.82c3.05 3.65 6.82 2.7 10.32 2.65 4.08-.08 7.51-1.28 9.34-5.61.93-2.23 3.52-3.82 3-6.63-.81-4.07-.1-8.11.27-12.24-2.72-.13-5 0-7.14-.37-2.47-.34-4.87-1.1-7.32-1.57-2-.39-3.76-2.3-6.55-1.32a59 59 0 0 0 1.42 6.73c2.17 6.73 2.66 13.12-3.3 18.34Zm77.65-59.9c0-5 .15-10 0-15-.3-7.88-5.14-12.58-11.72-15.89-2.17-1.1-4.67-.26-6.46 2.23-1.36 1.91.42 3 1.42 4.19a95.3 95.3 0 0 1 12.45 17.67c3.4 6.47 3.62 12.76-1.17 18.66-1.44 1.78-2.47 3.47-2 6 .93 5.26-2.12 8.32-6.48 10.38-1.49.71-3.28.86-4.6 1.76-1.61 1.1-1 3-.68 4.6.27 1.35 1.34 1.69 2.52 1.45 2.71-.54 5.43-1.13 8.12-1.81a8.16 8.16 0 0 0 6.09-6.22 57 57 0 0 0 1.49-6.49 85.8 85.8 0 0 0 1.1-21.59Zm-83.62-24.26c-3.55-1-6.92.78-10.32 1.61a37.85 37.85 0 0 0-15.58 7.74 18.37 18.37 0 0 0-6.53 11.33 14.28 14.28 0 0 0 8 15.18 4.9 4.9 0 0 0 4 .35c3.47-1.5 4.69-4.58 5.33-8a7 7 0 0 0-2.86-7.34c-1.93-1.47-4.75-1.5-6.19-3.8.51-.39.88-.95 1.25-.93 4.77.12 8.78 1.74 10.91 6.32a4 4 0 0 0 4.69 2.47c2.18-.32 2.3-2.18 2.42-3.82a57.2 57.2 0 0 1 4.6-17.72 3.9 3.9 0 0 0 .25-3.46Zm-29.79-47.57H164c0-6.12.05-12.24 0-18.36 0-2.3-1-3.18-3-3a49.9 49.9 0 0 0-16.07 4c-6.09 2.81-9.39 7.56-9.71 14.37-.19 4.11.39 7.46 4.4 9.93a23 23 0 0 1 8.93 10.78c.64 1.46.37 3.69 2.18 4.21 1.49.41 3.25 0 4.89-.15 2.2-.25 4.4-.66 6.6-.93a2.87 2.87 0 0 0 2.82-3.35L164.41 68Zm55.44 82.48c1.06-.1 3.84-.3 6.58-.69a4 4 0 0 0 3.4-2.1c2.33-5.32 6.29-9.11 11-12.32a3.53 3.53 0 0 0 1.47-3.62c-.32-2.62-1.4-3.75-4.4-3.82-8.64-.27-17.25-.71-25.69-2.72-4.06-.95-8-2.15-12.08-3.2-1.86-.49-3.18-.05-3.84 2-1.88 5.9-2.35 12-2.47 18.14a4 4 0 0 0 3.11 4.38c7 1.86 13.92 4 23 4Zm-115.1-25.46c6-5.83 13.28-9.11 21-11.53 2.91-.93 5.79-2 8.65-3.11a51 51 0 0 0 6.8-3.16c6.12-3.52 7.42-7.25 5-14a63 63 0 0 0-3.33-7.66c-1.49-2.91-3.2-5.7-6-7.44-.51.37-.9.51-.93.71-1.47 8.22-7.24 12.09-14.45 14.66a62.4 62.4 0 0 0-9.2 3.94c-10 5.54-13 16.36-7.53 27.64Zm127.09 50.28c-5.53 3.31-6.16 7-5.19 11 1.08 4.58 1 8.84-2.44 12.49a2.3 2.3 0 0 0-.42.71 2.93 2.93 0 0 0 1.67 4.06c4.08 1.3 8.24 1.1 12.4.56 8.21-1.07 12.62-5 13.89-13.12.93-6 1.12-12.19 1.61-18.28.17-2.21-.63-3.46-3-4.14-8.14-2.35-15.67-5.83-20.2-13.64-.85-1.49-2.22-1.47-3.62-1.1-5.57 1.45-11.1.49-16.53-.61-3.79-.76-7.46-2.2-11.2-3.26-1.2-.34-2.45-1.56-4 .22.9 8.74 4.94 15.55 13.43 19.15a64 64 0 0 0 9.56 2.81c4 1 8.07 1.79 14 3.09ZM255.08 161a36 36 0 0 1 2.73-3c2.67-2.45 5.51-4.72 8.13-7.22 6.4-6.07 7.16-9.87 3-17.8a147 147 0 0 0-8-12.73c-1.69-2.54-4.77-4.77-5.14-7.44-.46-3.43 3.65-5.19 5.82-7.61 4.29-4.78 8.74-9.38 11-15.55-7.66-5-9.1-7.71-7-18.63 1.27-6.63 4.21-12.75 10.62-16.3 1.44-.78 2.08-1.84 1.59-3.38-3.21-10.21-7.63-19.76-14.75-27.88a42.4 42.4 0 0 0-24.81-14.41 58 58 0 0 0-33.58 3.52c-14 5.8-23.24 16.11-27.91 30.41a58.8 58.8 0 0 0-1.22 31.38c2.91 13.25 9.25 24.46 19.86 33.05 3 2.4 5.63 4.7 3.18 9-.61 1.1.2 2.15 1.35 2.59a27 27 0 0 0 4 1.28 110.7 110.7 0 0 0 30.67 3.25c2.49-.1 5-.05 7.51.1a3.52 3.52 0 0 1 3.08 2.47 16.2 16.2 0 0 1 .61 3.28c.32 2.48 1.66 2.45 3.5 1.57a1.73 1.73 0 0 1 2.4.42c-2.91 2-5.85 3.89-8.74 5.87a27.4 27.4 0 0 0-7.14 7c-3.62 5.31-3.2 9 1.62 13.19a33.1 33.1 0 0 0 18.2 7.57 10.84 10.84 0 0 0 9.22-3 5 5 0 0 0 1.18-2.13c.1-.29-.61-1.17-.71-1.15-2.08.76-4.14 1.57-6.17 2.47-1.29.59-2.54 1.13-4.06-.22Zm11.17-55.65c3.13 1.79 5.34 3 7.49 4.29a16.18 16.18 0 0 1 8 12.14 143.3 143.3 0 0 1-.13 43.36 38 38 0 0 1-1.29 4.84 13 13 0 0 1-9.84 9.31 33.4 33.4 0 0 1-6.57 1c-4.82.15-5.56.08-6 5.68a42 42 0 0 1-1.73 9c-1.94 6.24-6 10.77-12.38 12.54-7.9 2.15-15.9 3.5-23.41-1.3a5.75 5.75 0 0 0-5.5-.49 19.63 19.63 0 0 1-13.14.24 19 19 0 0 1-3.1-1.17c-3-1.64-4.33-5.51-1.81-7.76 5.28-4.75 4.89-10.11 3.4-16.06a40 40 0 0 1-.78-6.64 8.35 8.35 0 0 0-2.06-5.36c-5.4-5.8-7.66-12.82-8.17-20.56-.15-2.13-.88-3.77-3.28-4.11-1.15-.17-2.3-.3-2.91.9s-1 2.65-1.64 3.85c-.95 1.69-1.71 3.91-3.22 4.77-4.46 2.52-4.5 6.07-4.16 10.55.88 11.41 2.21 25.87 2.7 37.3a22 22 0 0 1-.3 4.14c-.05.37-.76.83-1.2.86a1.46 1.46 0 0 1-1.05-.88 22 22 0 0 1-.49-3.31c-1.1-12.78-3.26-28.59-4.19-41.39-.19-2.74-.8-4.65-3.45-6-10.59-5.33-11.74-21.17-4.4-29.89a31 31 0 0 1 2.84-3.06 5.46 5.46 0 0 0 1.91-4.43c-.2-7.54-.35-15-.66-22.59-.15-3.11-1.2-3.65-4.53-2.89-1.91.44-3.79.93-5.67 1.44-2.57.69-4.53 1.69-4.55 5 0 5.63-3.28 9.35-8.12 11.7a95 95 0 0 1-11.5 4.92c-9.86 3.35-19.13 7.66-26.76 15-.34.32-1 .34-1.61.56a27 27 0 0 1-5.72-17c.14-8.86 4-15.54 11.49-20.07a84 84 0 0 1 9.08-4.24c2.27-1 4.64-1.88 6.89-3a10.27 10.27 0 0 0 6.07-9.31c.15-3.62.1-7.24.05-10.86-.12-11.93 7.26-17.29 14.92-19.74A38.8 38.8 0 0 1 159 44.91c1.39.05 2.78 0 4.15-.07 1-.08 1.47-1.57 3.16-1 1.61 24 3.23 48.1 4.82 72 1.78 1.08 3 .1 4.23-.34a83.3 83.3 0 0 1 17.05-4 1.51 1.51 0 0 0 .68-2.54c-1.2-1.18-2.52-2.21-3.67-3.41-18-18.53-23-40.44-15.31-64.8 6.34-20.17 21.29-31.46 41.59-35.86a59.7 59.7 0 0 1 21.62-.74A48 48 0 0 1 267 19.87c8 8.84 14.07 18.75 15.75 30.82a13 13 0 0 0 2.23 6.17c4 5.6 4 12.07 3 18.51a14.52 14.52 0 0 1-6.39 10.4 14 14 0 0 0-5.11 6.36c-2.25 4.83-5.92 8.69-10.17 13.22Z"/><path class="cls-3" d="M255.15 62c-.1-2.23-.1-4.46-.32-6.68-1.44-14.64-8.54-25.71-21.28-33.05-6.65-3.82-13.92-4.75-20.91-1.74-12.55 5.39-22 14.32-26.32 27.54-3.79 11.6-2.54 23.16 2.84 34.13a28.72 28.72 0 0 0 14.11 13.71c12.21 5.63 24.34 5 36.25-1 5.72-2.86 9.56-7.54 12-13.39a47 47 0 0 0 3.6-19.61ZM221 105.6a43.1 43.1 0 0 1-18.67-3.82C193 97.54 186.37 90.69 182.92 81c-9.73-27.37 2-51.85 27.18-64a26.8 26.8 0 0 1 24.23.32c11.74 5.75 20.31 14.46 24.27 27.27a60.1 60.1 0 0 1 .95 33c-4 15.84-15.48 25.7-31.92 27.56-2.2.25-4.45.3-6.67.44Z"/></g></g></svg>