<?xml version="1.0" encoding="utf-8"?>
<!-- License: MIT. Made by phosphor: https://github.com/phosphor-icons/phosphor-icons -->
<svg fill="#046AAC" width="800px" height="800px" viewBox="0 0 256 256" id="Flat" xmlns="http://www.w3.org/2000/svg">
  <path d="M201.53906,201.53906a103.95314,103.95314,0,1,0-147.07812,0A104.12262,104.12262,0,0,0,201.53906,201.53906Zm-99.88281-83.88281a7.99915,7.99915,0,1,1-11.3125-11.3125l32-32a7.99708,7.99708,0,0,1,11.3125,0l32,32a7.99915,7.99915,0,0,1-11.3125,11.3125L128,91.3125Zm0,56a7.99915,7.99915,0,1,1-11.3125-11.3125l32-32a7.99708,7.99708,0,0,1,11.3125,0l32,32a7.99915,7.99915,0,0,1-11.3125,11.3125L128,147.3125Z"/>
</svg>