<svg class="p-10" data-name="Capa 1" id="Capa_1" viewBox="0 0 362.87 239.66" xmlns="http://www.w3.org/2000/svg"><defs><style>.cls-1{fill:#fff}</style></defs><g class="animate-up"><path class="cls-1" d="M116.19 91.05c-3.49.56-6.24-1.7-9.29-2.66-19.29-6.27-35.94-1.17-50.29 12.14-10.36 9.63-13.92 21.74-10.53 35.68.53 2.25 1.06 4.5 1.6 6.83-3.59 3.57-8.08 2-12 2.68-14.33 2.6-26.51 14.28-29.07 28.63-1.1 6.09-.57 12 2.6 17.58 5.65 9.84 14.94 12.58 25 7.41 5.07-2.63 8.18-7.39 12-10.89 3.88.64 3.31 3.4 3.41 5.49.3 6.13 1.28 12 4 17.58 4.9 10.27 12.99 15.54 24.4 15.48 17.22-.06 30.64-7.22 39.63-22 2.19-3.57 3.72-7.52 5.7-11.19a4 4 0 0 1 6.92-.25c2.77 4.31 5.27 8.77 7.84 13.21a54.76 54.76 0 0 0 28 24.18 46.85 46.85 0 0 0 26.05 2.67c14.21-2.47 22.49-10.93 24.23-25 .42-3.16.16-6.42.2-10.57 8.1 21.57-6.72 39.23-26.39 41.2-23 2.31-40.9-6.43-54.57-24.58-3-4-5.51-8.25-8.55-12.82-4.87 3-6.55 7.61-9.45 11.07a54.1 54.1 0 0 1-37.38 19.56 31.85 31.85 0 0 1-33.6-21.82c-1.18-3.51-2-7.13-3-10.69-4.34-.27-6.66 3.18-9.9 4.66-14.24 6.62-28.83-.32-32.71-15.63-4.71-18.54 7-38.77 26.24-45.17 2.2-.73 4.49-1.3 6.74-1.83s4.52-1 6.62-1.42c1.64-4.62-.49-8.61-.77-12.73A36.24 36.24 0 0 1 47.25 103c14.73-19.63 43.7-26.57 65.52-15.64 1.59.8 3.28 1.8 3.2 4.06l.22-.3Zm77.16-61.14c2.46-1.25 4.4 0 6.51 1.06 3.67 1.78 6.38 5.33 11.1 6.13 1-2.19 2-4.28 3-6.31 6.37-12.57 16.53-21.06 29.11-27 18.14-8.58 45.85-3.25 53.5 24 1.1 3.89.59 8.35 3.61 12 3.47-1.12 6.93-2.28 10.42-3.28 13.49-3.83 25.84-1.16 37.18 6.71 14.49 10.08 19 25.81 11.38 41.76-7.18 15.07-19.33 24.9-35.47 29.27-5.8 1.57-12 1.7-18 2.55-3 .42-6.37-1.29-8.51 2.77-.93 1.76-2-.72-2.55-1.46a7 7 0 0 1-1.39-3.59c-.08-.53 1.14-1.71 1.77-1.69 3.69 0 7.38.3 11.09.43 19.87.72 35.06-7.65 46.22-23.78a34.14 34.14 0 0 0 5.59-14.16 26.55 26.55 0 0 0-6.92-23.17c-11.38-12.43-31.11-16.15-46.03-8.49-2 1.06-3.81 2.67-5.83 3.85-3.06 1.84-4.92.6-5.11-3.34-.15-2.79 0-5.6-.31-8.36-3.06-26-26.52-36-47.33-27.51a54.1 54.1 0 0 0-27.77 24.43c-2 3.58-3 8-8.11 10.19-5.43-4.28-11.19-8.81-16.95-13.37l-.2.32Z" id="NUBES"/><g id="ESTRELLAS"><path class="animate-scaling-animation" d="m346.94 179.12-2.33-3.12 1.25-3.69-3.69 1.25-3.12-2.33.05 3.9-3.18 2.25 3.72 1.16 1.16 3.72 2.25-3.19zm-25.23-45.08-1.86-2.48 1-2.94-2.94 1-2.48-1.85.04 3.1-2.53 1.79 2.96.91.92 2.96 1.79-2.53zm34.13 93.13-1.85-2.48.99-2.93-2.93.99-2.48-1.85.04 3.1-2.53 1.79 2.96.92.92 2.95 1.79-2.53zm-62 3-1.85-2.48.99-2.93-2.93.99-2.48-1.85.04 3.1-2.53 1.79 2.96.92.92 2.95 1.79-2.53z" style="fill:#ffde00"/><path class="animate-scaling-animation cls-1" d="M322.61 207a2.16 2.16 0 0 1-.19 2.71c-.56.58-2.88 3.31-2.88 3.31s3-2 3.67-2.4a2.14 2.14 0 0 1 2.71.18l3.31 2.88-2.39-3.68a2.05 2.05 0 0 1 .18-2.71c.54-.6 2.88-3.31 2.88-3.31s-3 1.93-3.67 2.4a2.12 2.12 0 0 1-2.71-.18c-.59-.55-3.31-2.88-3.31-2.88s1.94 3.01 2.4 3.68m20.77-70a2.17 2.17 0 0 1-.18 2.71c-.57.58-2.89 3.31-2.89 3.31s3-2 3.68-2.4a2.14 2.14 0 0 1 2.71.18l3.31 2.88s-1.95-3-2.4-3.67a2.07 2.07 0 0 1 .19-2.71l2.88-3.31s-3 1.93-3.68 2.4a2.1 2.1 0 0 1-2.7-.18c-.6-.55-3.32-2.88-3.31-2.88s1.94 3 2.39 3.67m-97.3 83.06a2.16 2.16 0 0 1-1.29 2.38c-.75.29-4 1.81-4 1.81s3.53-.57 4.32-.66a2.13 2.13 0 0 1 2.38 1.28l1.81 4-.65-4.32a2 2 0 0 1 1.28-2.38c.73-.32 4-1.81 4-1.81s-3.53.51-4.32.66a2.1 2.1 0 0 1-2.38-1.28c-.31-.74-1.81-4-1.81-4s.52 3.53.66 4.32"/></g><g class="animate-upDown-animation" id="COHETE"><path class="cls-1" d="M237.08 52.52c13.09 8.73 23.6 20.19 35.44 30.16 5.71 4.8 12.36 6.81 19.55 7.43a2.34 2.34 0 0 0 2.34-3.69 17.8 17.8 0 0 0-2.1-3.08c-13-13.65-27.51-25-46-30.18a65 65 0 0 0-7.25-1.5c-.48-.08-1.06.43-1.94.8Zm-25.47 1.31c-2.79.48-4.63.73-6.46 1.09s-2.53 1.9-1.34 3.19a18 18 0 0 0 1.35 1.27q19.77 18.35 37.8 38.41c2.82 3.13 2.92 3 7.06 1q9.57-4.73 19.09-9.56a2.47 2.47 0 0 0 .78-3.89 6 6 0 0 0-.61-.7c-9-8.07-17.88-16.27-27-24.17a30.72 30.72 0 0 0-23.3-7.4c-2.79.22-5.56.55-7.35.71Zm43.72 116.81c1-.76 2.12-1.38 3.3-.31 5.81 5.39 12.77 8.79 20.09 11.52 5.32 2 9.53 5.76 14.54 9.4-.12-5.16-3.14-7.95-6-10.59-3.64-3.37-7.6-6.39-11.41-9.6-5.3-4.5-9.59-9.76-11.92-16.4a5.1 5.1 0 0 1 0-1.78c.57.12 1.34.05 1.67.41 6.28 6.36 13.94 10.25 22.3 13.08a50.6 50.6 0 0 1 19.14 11.29 1.45 1.45 0 0 0 2.3 0 2.18 2.18 0 0 0 .1-1.73c-1.43-4.72-4.89-7.79-8.75-10.55-4.56-3.25-9.1-6.53-13.48-10a28 28 0 0 1-4.25-4.85 1.87 1.87 0 0 1 0-1.69 2 2 0 0 1 1.46-.86c4 .25 7.69 2.42 11.66 1.64 1.37-1.72-.13-2.36-.87-3.15-3.2-3.39-6.37-6.79-9.67-10.08a32.1 32.1 0 0 0-21.55-9.83c-2.4-.12-4.14.75-5 3.27-5.29 16.07-16.54 26.71-31.3 34-2.86 1.43-4.55 2.93-4 6.32.31 1.81-.09 3.73.08 5.58 1 10.3 5.31 18.52 15.26 22.74 8.29 3.54 16.61 6.9 23.78 12.34 2.09-1.88.58-3.15-.12-4.19a102 102 0 0 0-14.07-17.32 30.2 30.2 0 0 1-7.79-12.56c2.24-.68 2.81.91 3.49 2a32.4 32.4 0 0 0 14.65 12.54 67.5 67.5 0 0 1 14.95 9.42c.94.76 1.74 1.76 3.18 1.29-2.92-8.17-3.25-8.64-22.05-31.53l.2.18Zm-56.69 16.22.17-.17c-4.27-.53-7-3.67-9.86-6.26-9.64-8.62-19.94-16.52-28.13-26.66a4.62 4.62 0 0 0-4.05-1.73l.29.09a40 40 0 0 0-.92-5.5c-2.81-8.44-3.72-17-1.56-25.68.53-2.14-.4-3.53-1.92-4.83-5.71-4.79-11.46-9.53-17.05-14.46a71.54 71.54 0 0 1-20.51-30.61q-7.33-21.11-14.43-42.29c-.72-2.12-1.7-4.33-.92-7.4 5.57 8.39 6.64 18 12 26.42 6.85-4.19 13.14-8.63 17-15.67 2.09-3.87 3.55-6.19-3.05-7.91-6.89-1.8-13.67-4.09-20.45-6.27-1.35-.44-3.16-.63-3.36-2.65l-.13.22c2.16-.84 4.27-.31 6.41.22 8.45 2 16.89 4 25.33 6.15 23.1 5.83 45.12 14 63.36 30.09a6.58 6.58 0 0 0 6.87 1.39c9-2.78 18.06-4.56 27.52-2.92a4.7 4.7 0 0 0 1.86-.17c8.3-2 16 .27 23.58 3.28 14.06 5.64 25.9 14.61 36.64 25.15a23.6 23.6 0 0 1 3.45 4.38c1.48 2.35 3.27 4.76 1.47 7.73s-4.73 2.67-7.48 2.58a19.8 19.8 0 0 1-5.47-1.1c-2.38-.76-4.63-1.82-6.94-2.73-1.16-.45-2.25-.68-3.38.34-3.76 3.43-8.67 4.7-13.08 6.94-4.92 2.49-10.67 3.54-14.62 7.84l.2-.12c-4.48-1.77-7.38-5.54-10.74-8.69-8.9-8.28-17.53-16.86-26.28-25.21-3.6-3.47-7.33-6.74-10.95-10.15-17.64-16.63-38.56-27-61.91-32.85a25 25 0 0 0-3.1-.34C131.61 38 124.26 44.73 114.66 49.4c-1.74.82-2 2.25-1.51 3.85 5.71 17.59 12.68 34.39 27.08 47.06 8.9 7.83 18 15.26 27.42 22.46 12.81 9.83 26.57 18.45 38.32 29.68 1.91 1.84 3.74 1.53 5.87.35 16.91-9.53 29.65-22.44 34.37-42 .35-1.5.37-3.08 1.52-4.29h-.26a9.24 9.24 0 0 0 4.32 4.45 10.66 10.66 0 0 1 5.87 7.59c-3.76-.33-4.07-5.29-8.41-5.89-.48 2.9-3 5.6-.07 8.76l-.17-.36c-.53.31-1.21.54-1.52 1a162 162 0 0 0-11.06 18.5c-1.37.73-3 1.19-4 2.23-4.4 4.31-9.09 8.15-14.82 10.63-1.67.73-1.87 2.34-.63 3.79 1 1.16 2.12 2.28 3.22 3.36 2.92 2.89 3.81 2.91 6.92 0a11 11 0 0 0 1.49-2.27l-.34-.16c5.61.27 6.09-.67 3.31-6.82 1.93-.57 2.29 1.25 3.22 2a2.73 2.73 0 0 0 3.32.16c3.35-1.81 3.81-3.38 2.58-8.19 3.73 2.22 4.09 2.08 6 .2 2.36-2.25 2.42-5.36 3.42-8.11l-.14.11a1.74 1.74 0 0 0 2.31-.42c1.76-2.7 3.39-5.47 2.73-8.93l-.12.27a14 14 0 0 0 2.34-10.25c.68.58 1.81 1 1.95 1.72.73 3.17 2.11 4.66 5.78 4.4 8.59-.59 15.69 3.28 21.73 8.91 6.34 5.91 12.14 12.41 19.79 16.77a1.3 1.3 0 0 1 .56.71c.15.56.46 1.25.29 1.72a2.3 2.3 0 0 1-1.34 1.06c-3.4 1.18-6.74-.25-10.11-.35-1.89-.07-3.91-1.53-6.1.39 2.83 3 6.17 4.64 9.28 6.64 2.88 1.81 5.93 3.48 8.41 5.75 5.92 5.38 8.25 12.15 6.66 20.12-.19.86-.62 1.79-1.76 1.9a2.5 2.5 0 0 1-2.45-.89c-.18-.24-.46-.45-.61-.7-5.52-8.95-14-13.73-23.66-16.89-2.29-.75-4.93-1-6.5-3.25.06.15.11.34.17.49-.56 0-.52-.13.07-.37-1 2 0 3.46 1.58 4.75 3.59 2.91 7.34 5.66 10.68 8.86a21 21 0 0 1 6.64 15.8 2.33 2.33 0 0 1-1.09 2.34 2.86 2.86 0 0 1-3.4-.42 35 35 0 0 1-3.19-3.34c-4.14-4.87-9.47-7.9-15.34-10.07-1.27-.48-2.76-1.59-3.9.52 3 4.31 6 8.6 8.88 13a15.2 15.2 0 0 1 2.72 10.53c-.19 1.53-2.32 2.66-3.5 1.73-2.17-1.72-4.12-3.71-6.31-5.42-3.82-3-6.89-7.18-12.33-7.48-.17-.8-.51-1-1-.67-.06 0 .14.51.28.54a2.2 2.2 0 0 0 .82-.08c0 3.18 2.82 4.62 4.28 6.89 2.37 3.7 4.23 7.54 4.19 12.06 0 1.61-1.91 2.95-3.18 2.11a27 27 0 0 1-3.66-2.81 60.4 60.4 0 0 0-18.9-11.5c-2.88-1.15-5.76-2.3-8.53-3.63a25.55 25.55 0 0 1-12.48-13.13 29.7 29.7 0 0 1-2.27-18.08c.28-1.49 1.15-3.22-.21-4.37-4.14-3.57-6.46-9.94-13.63-9.12-.81.09-1.81-.91-2.59-.78a13.2 13.2 0 0 0-3.2 1.57c-.23-1.85-.4-3.73-2.08-5q-19.41-14.38-38.75-28.75a2.8 2.8 0 0 0-.89-.24c-2 .7-1.26 2.43-1.35 3.83 0 .3.07.62 0 .93-1.38 13.5 4.35 24 13.82 32.92 6.32 5.95 12.79 11.69 19.22 17.51 1.15 1 2.27 2.11 4.25 2 2.18-3.47 1.47-7.69 2.49-11.49 1.06-4.06.37-8.65 3.47-12.13a102.4 102.4 0 0 1-2.58 31.06Z"/><path class="cls-1" d="M156.91 152.05c-.49.72-1.31 1.44-1.35 2.19a20.06 20.06 0 0 0 2.69 11.65 55 55 0 0 0 4.51 7.08 132.7 132.7 0 0 0 33.56 29.37 23.5 23.5 0 0 0 6.86 2.75c3.75.89 6.39-1.52 5.59-5.09-1.33-5.95-3.94-11.05-10.22-13.21l.16-.16c-.22 2.14 1.49 3.24 2.49 4.73 1.5 2.32 3 4.68 4.24 7.12a3.22 3.22 0 0 1-.23 2.56 1.76 1.76 0 0 1-2.37.7 31 31 0 0 1-5-2.22c-12.49-8.09-24-17.4-33.38-29.05-4.33-5.39-7.26-11.43-7.7-18.5l.29.09Zm90.52-45.59-.3-1.83.2-.12.33 2h-.25ZM194.71 85.9c-15 2.39-18.13 11.36-14.71 23.27 4 14.08 18.62 19.71 31.23 12.22 8.95-5.33 11.1-17.57 4.67-27-5.15-7.58-12.62-9.51-21.22-8.48Zm-.48-3.35c1.77-.14 3.62-.36 5.47-.37 10.23-.06 19 6.72 21.85 16.87 2.93 10.33-.63 19.87-9.31 24.88-9.31 5.36-21.62 4.44-28.51-2.46-5.49-5.49-8-12.38-8-20.16 0-8.13 4.46-13.26 11.38-16.53a56 56 0 0 1 7.18-2.24Zm-42.54-32.38c-8.21 1.38-11.14 4.2-12.6 11-2 9.25 2.53 20.29 10.51 25.14 5.16 3.15 10.42 3.68 15.84.33a25.9 25.9 0 0 0 6.41-5.32c6.49-7.76 6.08-17.3-1.21-24.24-5.7-5.44-12.45-8.07-18.95-6.87Zm-1.19-3.26c9.55-1 19.34 1.09 25.83 11.4 2.95 4.68 4.35 9.68 2.88 15.13-2.43 9.19-8.4 15-17.6 17.4a16.8 16.8 0 0 1-12.6-1.84c-10-5.52-15.81-18.27-13.29-29.44 1.72-7.71 5.31-11.06 14.78-12.65m104.87 123.75.14-.44s-.28.27-.31.28.17.16.17.16m-19.27-30.28c.46 1.58 1.07 3.06 2.76 3.74a4.6 4.6 0 0 0-2.76-3.74"/><path class="cls-1" d="M238.53 143.82c.48 1.05 1.11 2 2.51 1.73-.51-1.05-1.09-2-2.51-1.73m11.45-6.28c-.79-.42-1.58-.84-2.39-1.23a2 2 0 0 0 .19-.17c-.05 1.83 1.05 1.76 2.33 1.32l-.12.11Zm-6.16-1.73c1.29.22 2.51 1.07 3.91.36 0 0-.19.17-.17.14-1.15-.08-2.35-.15-3.55-.2l-.22-.32Z"/><path class="cls-1" d="M244.04 136.1c0-.23.11-.49.16-.72.55.49.43.62-.35.42Zm10.86-7.64-2.78-.94-.23-.19c1.05.3 2.09.57 3.13.86Z"/><path class="cls-1" d="M252.11 127.49c0-1.25-1.08-.18.06-.65.46-.19.55.35-.26.46Zm-3.14-6.49a6 6 0 0 1-.25.67c-.48-.55-.33-.66.42-.32Zm-20.71 37.12c.16 1.24 1.14 0 0 .57-.43.21-.52-.33.3-.38Zm-3.69-2.87.09-.6-.5.17z"/></g></g></svg>